<svg xmlns="http://www.w3.org/2000/svg" width="21.585" height="21.585" viewBox="0 0 21.585 21.585">
  <g id="streamline-icon-money-cashier_48x48" data-name="streamline-icon-money-cashier@48x48" transform="translate(-0.964 -0.964)">
    <g id="Group_12" data-name="Group 12" transform="translate(1.714 1.714)">
      <line id="Line_15" data-name="Line 15" x2="1.545" transform="translate(9.27 16.222)" fill="none" stroke="#fff" stroke-linecap="round" stroke-linejoin="round" stroke-width="1.5"/>
      <line id="Line_16" data-name="Line 16" y1="3.09" transform="translate(14.677 3.862)" fill="none" stroke="#fff" stroke-linecap="round" stroke-linejoin="round" stroke-width="1.5"/>
      <path id="Path_16" data-name="Path 16" d="M33.608,3.646a1.931,1.931,0,0,1-1.931,1.931H29.36a1.931,1.931,0,0,1,0-3.862h2.317A1.931,1.931,0,0,1,33.608,3.646Z" transform="translate(-15.841 -1.714)" fill="none" stroke="#fff" stroke-linecap="round" stroke-linejoin="round" stroke-width="1.5"/>
      <path id="Path_17" data-name="Path 17" d="M13.206,10.55V5.143H8.571V10.55" transform="translate(-5.481 -3.598)" fill="none" stroke="#fff" stroke-linecap="round" stroke-linejoin="round" stroke-width="1.5"/>
      <rect id="Rectangle_48" data-name="Rectangle 48" width="20.085" height="7.725" rx="3.429" transform="translate(0 12.36)" fill="none" stroke="#fff" stroke-linecap="round" stroke-linejoin="round" stroke-width="1.5"/>
      <path id="Path_18" data-name="Path 18" d="M22.138,22.55V18.688a1.545,1.545,0,0,0-1.545-1.545H6.688a1.545,1.545,0,0,0-1.545,1.545V22.55" transform="translate(-3.598 -10.19)" fill="none" stroke="#fff" stroke-linecap="round" stroke-linejoin="round" stroke-width="1.5"/>
    </g>
  </g>
</svg>
